<?xml version="1.0" encoding="UTF-8" standalone="no"?>
<!-- Created with Inkscape (http://www.inkscape.org/) -->

<svg
   width="66mm"
   height="64mm"
   viewBox="0 0 66 64"
   version="1.1"
   id="svg1"
   inkscape:version="1.3.2 (1:1.3.2+202404261509+091e20ef0f)"
   sodipodi:docname="phasor.svg"
   inkscape:export-filename="phasor.jpg"
   inkscape:export-xdpi="1000"
   inkscape:export-ydpi="1000"
   xmlns:inkscape="http://www.inkscape.org/namespaces/inkscape"
   xmlns:sodipodi="http://sodipodi.sourceforge.net/DTD/sodipodi-0.dtd"
   xmlns="http://www.w3.org/2000/svg"
   xmlns:svg="http://www.w3.org/2000/svg"
   xmlns:ns1="http://www.iki.fi/pav/software/textext/">
  <sodipodi:namedview
     id="namedview1"
     pagecolor="#ffffff"
     bordercolor="#999999"
     borderopacity="1"
     inkscape:showpageshadow="0"
     inkscape:pageopacity="0"
     inkscape:pagecheckerboard="0"
     inkscape:deskcolor="#d1d1d1"
     inkscape:document-units="mm"
     inkscape:zoom="3.2479097"
     inkscape:cx="160.8727"
     inkscape:cy="128.23632"
     inkscape:window-width="2560"
     inkscape:window-height="1531"
     inkscape:window-x="0"
     inkscape:window-y="1472"
     inkscape:window-maximized="1"
     inkscape:current-layer="layer1"
     showguides="false">
    <sodipodi:guide
       position="17.511239,8.088448"
       orientation="1,0"
       id="guide1"
       inkscape:locked="false" />
    <sodipodi:guide
       position="17.511239,8.088458"
       orientation="0,-1"
       id="guide2"
       inkscape:locked="false" />
  </sodipodi:namedview>
  <defs
     id="defs1">
    <marker
       style="overflow:visible"
       id="marker6"
       refX="0"
       refY="0"
       orient="auto-start-reverse"
       inkscape:stockid="Wide arrow"
       markerWidth="1"
       markerHeight="1"
       viewBox="0 0 1 1"
       inkscape:isstock="true"
       inkscape:collect="always"
       preserveAspectRatio="xMidYMid">
      <path
         style="fill:none;stroke:context-stroke;stroke-width:1;stroke-linecap:butt"
         d="M 3,-3 0,0 3,3"
         transform="rotate(180,0.125,0)"
         sodipodi:nodetypes="ccc"
         id="path6" />
    </marker>
    <marker
       style="overflow:visible"
       id="ArrowWide"
       refX="0"
       refY="0"
       orient="auto-start-reverse"
       inkscape:stockid="Wide arrow"
       markerWidth="1"
       markerHeight="1"
       viewBox="0 0 1 1"
       inkscape:isstock="true"
       inkscape:collect="always"
       preserveAspectRatio="xMidYMid">
      <path
         style="fill:none;stroke:context-stroke;stroke-width:1;stroke-linecap:butt"
         d="M 3,-3 0,0 3,3"
         transform="rotate(180,0.125,0)"
         sodipodi:nodetypes="ccc"
         id="path1" />
    </marker>
  </defs>
  <g
     inkscape:label="Layer 1"
     inkscape:groupmode="layer"
     id="layer1">
    <path
       style="fill:#000000;stroke:#000000;stroke-width:0.768;stroke-linejoin:round;stroke-dasharray:none;stroke-opacity:1;marker-end:url(#ArrowWide)"
       d="M 5.9112322,56.411084 V 2.491948"
       id="path2" />
    <path
       style="fill:#000000;stroke:#000000;stroke-width:0.768;stroke-linejoin:round;stroke-dasharray:none;stroke-opacity:1;marker-end:url(#ArrowWide)"
       d="M 5.5388032,56.411084 H 59.457939"
       id="path3" />
    <text
       xml:space="preserve"
       style="font-size:5.51023px;fill:#000000;stroke:#000000;stroke-width:1.49947;stroke-linejoin:round;stroke-dasharray:none;stroke-opacity:1"
       x="52.122971"
       y="51.922409"
       id="text3"
       transform="scale(0.97621864,1.0243607)"><tspan
         sodipodi:role="line"
         id="tspan3"
         style="stroke:none;stroke-width:1.49947"
         x="52.122971"
         y="51.922409">Real</tspan></text>
    <text
       xml:space="preserve"
       style="font-size:5.51023px;fill:#000000;stroke:#000000;stroke-width:1.49947;stroke-linejoin:round;stroke-dasharray:none;stroke-opacity:1"
       x="10.007522"
       y="4.5629892"
       id="text4"
       transform="scale(0.97621864,1.0243607)"><tspan
         sodipodi:role="line"
         id="tspan4"
         style="stroke:none;stroke-width:1.49947"
         x="10.007522"
         y="4.5629892">Imag</tspan></text>
    <path
       style="fill:#000000;stroke:#6659d0;stroke-width:0.768;stroke-linejoin:round;stroke-dasharray:none;stroke-opacity:1"
       d="M 5.9112322,56.411084 39.063439,23.258875"
       id="path4" />
    <path
       sodipodi:type="spiral"
       style="fill:none;fill-rule:evenodd;stroke:#009600;stroke-width:0.882387;stroke-dasharray:none;stroke-opacity:1;marker-start:url(#marker6)"
       id="path5"
       sodipodi:cx="60.916935"
       sodipodi:cy="15.255729"
       sodipodi:expansion="0.0099999998"
       sodipodi:revolution="1.1638989"
       sodipodi:radius="7.1950769"
       sodipodi:argument="-17.871132"
       sodipodi:t0="0.23168391"
       d="m 54.591522,18.459803 c -1.773423,-3.450383 -0.350466,-7.809893 3.10025,-9.5711192 3.471477,-1.7718224 7.850078,-0.3417284 9.617265,3.1291892 1.774007,3.484312 0.338513,7.876522 -3.145127,9.647963 -1.954123,0.993677 -4.307956,1.033394 -6.294936,0.10749"
       transform="matrix(-0.64030892,0,0,-0.64030892,44.25454,66.559587)" />
    <g
       transform="matrix(0.677361,0,0,0.677361,9.6029192,58.696117)"
       ns1:version="1.10.2"
       ns1:texconverter="pdflatex"
       ns1:pdfconverter="inkscape"
       ns1:text="$\\omega$"
       ns1:preamble="/home/shawn/.config/inkscape/extensions/textext/default_packages.tex"
       ns1:scale="1.920076115986692"
       ns1:alignment="middle center"
       ns1:stroke-to-path="0"
       ns1:inkscapeversion="1.3.2"
       id="g2156"
       ns1:jacobian_sqrt="0.677361"
       style="fill:#009600;fill-opacity:1;stroke:none;stroke-opacity:1">
      <defs
         id="id-00783afe-9270-466f-89fb-b88c99d04760">
        <g
           id="id-021289e4-dbe0-4226-8f40-f77f1143b2a0">
          <g
             id="id-c875a04f-e625-42b4-8bdd-b38f2b2ce6d3">
            <path
               d="m 6.03125,-3.703125 c 0,-0.453125 -0.171875,-0.703125 -0.40625,-0.703125 -0.25,0 -0.515625,0.234375 -0.515625,0.46875 0,0.09375 0.046875,0.203125 0.140625,0.296875 0.171875,0.15625 0.359375,0.421875 0.359375,0.84375 0,0.390625 -0.203125,0.96875 -0.5,1.421875 C 4.8125,-0.953125 4.4375,-0.609375 3.96875,-0.609375 3.40625,-0.609375 3.09375,-0.96875 3,-1.5 c 0.109375,-0.265625 0.34375,-0.90625 0.34375,-1.1875 0,-0.109375 -0.046875,-0.21875 -0.1875,-0.21875 -0.078125,0 -0.1875,0.03125 -0.265625,0.171875 C 2.78125,-2.53125 2.65625,-1.890625 2.65625,-1.53125 2.328125,-1.0625 1.9375,-0.609375 1.3125,-0.609375 c -0.671875,0 -0.875,-0.59375 -0.875,-1.140625 0,-1.25 1.015625,-2.296875 1.015625,-2.421875 0,-0.109375 -0.078125,-0.1875 -0.1875,-0.1875 -0.125,0 -0.203125,0.125 -0.265625,0.21875 -0.5,0.734375 -0.875,1.921875 -0.875,2.828125 0,0.6875 0.21875,1.421875 1.046875,1.421875 0.703125,0 1.171875,-0.5 1.53125,-1.046875 0.09375,0.578125 0.484375,1.046875 1.09375,1.046875 0.78125,0 1.25,-0.609375 1.609375,-1.359375 0.25,-0.484375 0.625,-1.84375 0.625,-2.453125 z m 0,0"
               id="id-091fc951-d1f7-46c8-91fc-ee51bff92f09" />
          </g>
        </g>
      </defs>
      <g
         fill="#000000"
         fill-opacity="1"
         id="id-fb0f6506-c332-4dc7-bd99-12605e2905d6"
         transform="translate(-148.837,-130.359)"
         style="fill:#009600;fill-opacity:1;stroke:none;stroke-opacity:1">
        <g
           transform="translate(148.712,134.765)"
           id="g4037"
           style="fill:#009600;fill-opacity:1;stroke:none;stroke-opacity:1">
          <path
             d="m 6.03125,-3.703125 c 0,-0.453125 -0.171875,-0.703125 -0.40625,-0.703125 -0.25,0 -0.515625,0.234375 -0.515625,0.46875 0,0.09375 0.046875,0.203125 0.140625,0.296875 0.171875,0.15625 0.359375,0.421875 0.359375,0.84375 0,0.390625 -0.203125,0.96875 -0.5,1.421875 C 4.8125,-0.953125 4.4375,-0.609375 3.96875,-0.609375 3.40625,-0.609375 3.09375,-0.96875 3,-1.5 c 0.109375,-0.265625 0.34375,-0.90625 0.34375,-1.1875 0,-0.109375 -0.046875,-0.21875 -0.1875,-0.21875 -0.078125,0 -0.1875,0.03125 -0.265625,0.171875 C 2.78125,-2.53125 2.65625,-1.890625 2.65625,-1.53125 2.328125,-1.0625 1.9375,-0.609375 1.3125,-0.609375 c -0.671875,0 -0.875,-0.59375 -0.875,-1.140625 0,-1.25 1.015625,-2.296875 1.015625,-2.421875 0,-0.109375 -0.078125,-0.1875 -0.1875,-0.1875 -0.125,0 -0.203125,0.125 -0.265625,0.21875 -0.5,0.734375 -0.875,1.921875 -0.875,2.828125 0,0.6875 0.21875,1.421875 1.046875,1.421875 0.703125,0 1.171875,-0.5 1.53125,-1.046875 0.09375,0.578125 0.484375,1.046875 1.09375,1.046875 0.78125,0 1.25,-0.609375 1.609375,-1.359375 0.25,-0.484375 0.625,-1.84375 0.625,-2.453125 z m 0,0"
             id="id-e3920197-7295-4063-a2ab-49123165f012"
             style="fill:#009600;fill-opacity:1;stroke:none;stroke-opacity:1" />
        </g>
      </g>
    </g>
    <g
       transform="matrix(0.677361,0,0,0.677361,23.619633,37.416335)"
       ns1:version="1.10.2"
       ns1:texconverter="pdflatex"
       ns1:pdfconverter="inkscape"
       ns1:text="$A$"
       ns1:preamble="/home/shawn/.config/inkscape/extensions/textext/default_packages.tex"
       ns1:scale="1.920076115986692"
       ns1:alignment="middle center"
       ns1:stroke-to-path="0"
       ns1:inkscapeversion="1.3.2"
       id="g9520"
       ns1:jacobian_sqrt="0.677361"
       style="fill:#6659d0;fill-opacity:1">
      <defs
         id="id-06e5e9ee-a8c2-43a8-8665-cb4ac3c16621">
        <g
           id="id-e5c6eb51-fe95-49b7-bead-0d250cb07491">
          <g
             id="id-40147dfb-379b-46bd-a15d-b9c45aea34c9">
            <path
               d="M 1.78125,-1.140625 C 1.390625,-0.484375 1,-0.34375 0.5625,-0.3125 0.4375,-0.296875 0.34375,-0.296875 0.34375,-0.109375 0.34375,-0.046875 0.40625,0 0.484375,0 0.75,0 1.0625,-0.03125 1.328125,-0.03125 c 0.34375,0 0.6875,0.03125 1,0.03125 0.0625,0 0.1875,0 0.1875,-0.1875 0,-0.109375 -0.078125,-0.125 -0.15625,-0.125 -0.21875,-0.015625 -0.46875,-0.09375 -0.46875,-0.34375 0,-0.125 0.0625,-0.234375 0.140625,-0.375 l 0.765625,-1.265625 h 2.5 c 0.015625,0.203125 0.15625,1.5625 0.15625,1.65625 0,0.296875 -0.515625,0.328125 -0.71875,0.328125 C 4.59375,-0.3125 4.5,-0.3125 4.5,-0.109375 4.5,0 4.609375,0 4.640625,0 5.046875,0 5.46875,-0.03125 5.875,-0.03125 6.125,-0.03125 6.765625,0 7.015625,0 7.0625,0 7.1875,0 7.1875,-0.203125 7.1875,-0.3125 7.09375,-0.3125 6.953125,-0.3125 6.34375,-0.3125 6.34375,-0.375 6.3125,-0.671875 l -0.609375,-6.21875 c -0.015625,-0.203125 -0.015625,-0.25 -0.1875,-0.25 -0.15625,0 -0.203125,0.078125 -0.265625,0.171875 z M 2.984375,-2.609375 4.9375,-5.90625 5.265625,-2.609375 Z m 0,0"
               id="id-5e1f3677-3900-4dbb-b496-d505186a093a" />
          </g>
        </g>
      </defs>
      <g
         fill="#000000"
         fill-opacity="1"
         id="id-23dfddd3-39ea-4cda-b955-8222fa69e19d"
         transform="translate(-149.056,-127.624)"
         style="fill:#6659d0;fill-opacity:1">
        <g
           transform="translate(148.712,134.765)"
           id="g6048"
           style="fill:#6659d0;fill-opacity:1">
          <path
             d="M 1.78125,-1.140625 C 1.390625,-0.484375 1,-0.34375 0.5625,-0.3125 0.4375,-0.296875 0.34375,-0.296875 0.34375,-0.109375 0.34375,-0.046875 0.40625,0 0.484375,0 0.75,0 1.0625,-0.03125 1.328125,-0.03125 c 0.34375,0 0.6875,0.03125 1,0.03125 0.0625,0 0.1875,0 0.1875,-0.1875 0,-0.109375 -0.078125,-0.125 -0.15625,-0.125 -0.21875,-0.015625 -0.46875,-0.09375 -0.46875,-0.34375 0,-0.125 0.0625,-0.234375 0.140625,-0.375 l 0.765625,-1.265625 h 2.5 c 0.015625,0.203125 0.15625,1.5625 0.15625,1.65625 0,0.296875 -0.515625,0.328125 -0.71875,0.328125 C 4.59375,-0.3125 4.5,-0.3125 4.5,-0.109375 4.5,0 4.609375,0 4.640625,0 5.046875,0 5.46875,-0.03125 5.875,-0.03125 6.125,-0.03125 6.765625,0 7.015625,0 7.0625,0 7.1875,0 7.1875,-0.203125 7.1875,-0.3125 7.09375,-0.3125 6.953125,-0.3125 6.34375,-0.3125 6.34375,-0.375 6.3125,-0.671875 l -0.609375,-6.21875 c -0.015625,-0.203125 -0.015625,-0.25 -0.1875,-0.25 -0.15625,0 -0.203125,0.078125 -0.265625,0.171875 z M 2.984375,-2.609375 4.9375,-5.90625 5.265625,-2.609375 Z m 0,0"
             id="id-069e91ed-58a6-4b24-a844-49369734e80b"
             style="fill:#6659d0;fill-opacity:1" />
        </g>
      </g>
    </g>
    <path
       sodipodi:type="spiral"
       style="fill:none;fill-rule:evenodd;stroke:#960000;stroke-width:0.882387;stroke-dasharray:none;stroke-opacity:1;marker-start:url(#marker6)"
       id="path7"
       sodipodi:cx="60.916935"
       sodipodi:cy="15.255729"
       sodipodi:expansion="0.0099999998"
       sodipodi:revolution="0.53945303"
       sodipodi:radius="7.1399589"
       sodipodi:argument="-17.871132"
       sodipodi:t0="0.49988386"
       d="M 54.591377,18.459517 C 52.818111,15.009053 54.241266,10.649608 57.692061,8.8885387 57.9556,8.754045 58.227513,8.6359781 58.505708,8.5352378"
       transform="matrix(-0.46977803,0.43509093,-0.43509093,-0.46977803,48.538109,34.238711)" />
    <path
       style="fill:none;fill-opacity:1;stroke:#ff9700;stroke-width:0.565;stroke-linejoin:round;stroke-dasharray:0.565, 1.13;stroke-dashoffset:0;stroke-opacity:1"
       d="M 39.063439,23.258875 32.741409,16.83381"
       id="path8"
       sodipodi:nodetypes="cc" />
    <circle
       style="fill:none;fill-opacity:1;stroke:#ff9700;stroke-width:0.564999;stroke-linejoin:round;stroke-dasharray:0.564999, 1.13;stroke-dashoffset:0;stroke-opacity:1"
       id="path9"
       cx="38.011501"
       cy="22.20693"
       r="7.5262356" />
    <g
       transform="matrix(0.54192511,0,0,0.54191089,36.598297,15.630825)"
       ns1:version="1.10.2"
       ns1:texconverter="pdflatex"
       ns1:pdfconverter="inkscape"
       ns1:text="$\\bar A$"
       ns1:preamble="/home/shawn/.config/inkscape/extensions/textext/default_packages.tex"
       ns1:scale="1.920076115986692"
       ns1:alignment="middle center"
       ns1:stroke-to-path="0"
       ns1:inkscapeversion="1.3.2"
       id="g14"
       ns1:jacobian_sqrt="0.677361"
       style="fill:#ff9700;fill-opacity:1;stroke-width:0">
      <defs
         id="id-05001bba-5da8-4315-b84c-1b644c37f146"
         style="fill:#6659d0;fill-opacity:1;stroke-width:0">
        <g
           id="id-def98572-63cc-49e3-8a3f-b514b5cb3d28"
           style="fill:#6659d0;fill-opacity:1;stroke-width:0">
          <g
             id="id-73f85a81-30dc-43fd-995e-4ea312bd3981"
             style="fill:#6659d0;fill-opacity:1;stroke-width:0">
            <path
               d="M 4.28125,-5.578125 V -5.875 H 0.6875 v 0.296875 z m 0,0"
               id="id-6f64b79c-9901-45de-9218-1bcd24fa5d69"
               style="fill:#6659d0;fill-opacity:1;stroke-width:0" />
          </g>
          <g
             id="id-c62e9dfe-fdf7-4ea9-8bd9-627698c9eb4f"
             style="fill:#6659d0;fill-opacity:1;stroke-width:0">
            <path
               d="M 1.78125,-1.140625 C 1.390625,-0.484375 1,-0.34375 0.5625,-0.3125 0.4375,-0.296875 0.34375,-0.296875 0.34375,-0.109375 0.34375,-0.046875 0.40625,0 0.484375,0 0.75,0 1.0625,-0.03125 1.328125,-0.03125 c 0.34375,0 0.6875,0.03125 1,0.03125 0.0625,0 0.1875,0 0.1875,-0.1875 0,-0.109375 -0.078125,-0.125 -0.15625,-0.125 -0.21875,-0.015625 -0.46875,-0.09375 -0.46875,-0.34375 0,-0.125 0.0625,-0.234375 0.140625,-0.375 l 0.765625,-1.265625 h 2.5 c 0.015625,0.203125 0.15625,1.5625 0.15625,1.65625 0,0.296875 -0.515625,0.328125 -0.71875,0.328125 C 4.59375,-0.3125 4.5,-0.3125 4.5,-0.109375 4.5,0 4.609375,0 4.640625,0 5.046875,0 5.46875,-0.03125 5.875,-0.03125 6.125,-0.03125 6.765625,0 7.015625,0 7.0625,0 7.1875,0 7.1875,-0.203125 7.1875,-0.3125 7.09375,-0.3125 6.953125,-0.3125 6.34375,-0.3125 6.34375,-0.375 6.3125,-0.671875 l -0.609375,-6.21875 c -0.015625,-0.203125 -0.015625,-0.25 -0.1875,-0.25 -0.15625,0 -0.203125,0.078125 -0.265625,0.171875 z M 2.984375,-2.609375 4.9375,-5.90625 5.265625,-2.609375 Z m 0,0"
               id="id-b38d4f1c-4841-4192-af53-b6bb849d8709"
               style="fill:#6659d0;fill-opacity:1;stroke-width:0" />
          </g>
        </g>
      </defs>
      <g
         fill-opacity="1"
         id="id-6072766c-dd71-47f7-97fc-88e3025636bf"
         transform="translate(-149.056,-126.371)"
         style="fill:#ff9700;fill-opacity:1;stroke-width:0">
        <g
           transform="translate(151.341,132.246)"
           id="g8612"
           style="fill:#ff9700;fill-opacity:1;stroke-width:0">
          <path
             d="M 4.28125,-5.578125 V -5.875 H 0.6875 v 0.296875 z m 0,0"
             id="id-120026cc-cba6-4e57-a8c7-4d4f93523917"
             style="fill:#ff9700;fill-opacity:1;stroke-width:0" />
        </g>
      </g>
      <g
         fill-opacity="1"
         id="id-b16eb216-e3fa-4c85-9173-45b06505426b"
         transform="translate(-149.056,-126.371)"
         style="fill:#ff9700;fill-opacity:1;stroke-width:0">
        <g
           transform="translate(148.712,134.765)"
           id="g7219"
           style="fill:#ff9700;fill-opacity:1;stroke-width:0">
          <path
             d="M 1.78125,-1.140625 C 1.390625,-0.484375 1,-0.34375 0.5625,-0.3125 0.4375,-0.296875 0.34375,-0.296875 0.34375,-0.109375 0.34375,-0.046875 0.40625,0 0.484375,0 0.75,0 1.0625,-0.03125 1.328125,-0.03125 c 0.34375,0 0.6875,0.03125 1,0.03125 0.0625,0 0.1875,0 0.1875,-0.1875 0,-0.109375 -0.078125,-0.125 -0.15625,-0.125 -0.21875,-0.015625 -0.46875,-0.09375 -0.46875,-0.34375 0,-0.125 0.0625,-0.234375 0.140625,-0.375 l 0.765625,-1.265625 h 2.5 c 0.015625,0.203125 0.15625,1.5625 0.15625,1.65625 0,0.296875 -0.515625,0.328125 -0.71875,0.328125 C 4.59375,-0.3125 4.5,-0.3125 4.5,-0.109375 4.5,0 4.609375,0 4.640625,0 5.046875,0 5.46875,-0.03125 5.875,-0.03125 6.125,-0.03125 6.765625,0 7.015625,0 7.0625,0 7.1875,0 7.1875,-0.203125 7.1875,-0.3125 7.09375,-0.3125 6.953125,-0.3125 6.34375,-0.3125 6.34375,-0.375 6.3125,-0.671875 l -0.609375,-6.21875 c -0.015625,-0.203125 -0.015625,-0.25 -0.1875,-0.25 -0.15625,0 -0.203125,0.078125 -0.265625,0.171875 z M 2.984375,-2.609375 4.9375,-5.90625 5.265625,-2.609375 Z m 0,0"
             id="id-1f04e5f2-743e-4943-8548-715f89369f17"
             style="fill:#ff9700;fill-opacity:1;stroke-width:0" />
        </g>
      </g>
    </g>
    <path
       style="fill:#ff9700;fill-opacity:1;stroke:#ff2f00;stroke-width:0.565;stroke-linejoin:round;stroke-dasharray:1.13, 0.565;stroke-dashoffset:0;stroke-opacity:1"
       d="M 5.9112322,56.411084 32.741408,16.83381"
       id="path14" />
    <g
       transform="matrix(0.677361,0,0,0.677361,11.947243,51.216929)"
       ns1:version="1.10.2"
       ns1:texconverter="pdflatex"
       ns1:pdfconverter="inkscape"
       ns1:text="$\\bar\\epsilon$"
       ns1:preamble="/home/shawn/.config/inkscape/extensions/textext/default_packages.tex"
       ns1:scale="1.920076115986692"
       ns1:alignment="middle center"
       ns1:stroke-to-path="0"
       ns1:inkscapeversion="1.3.2"
       id="g8593"
       ns1:jacobian_sqrt="0.677361"
       style="fill:#960000;fill-opacity:1;stroke-width:0">
      <defs
         id="id-9cafa7bb-01eb-47ce-b79d-0d607af2b15c"
         style="fill:#960000;fill-opacity:1;stroke-width:0">
        <g
           id="id-15b18ed6-b243-4a07-aa63-85f560b012c6"
           style="fill:#960000;fill-opacity:1;stroke-width:0">
          <g
             id="id-2121e598-0b2e-4204-8012-88d55349f5f2"
             style="fill:#960000;fill-opacity:1;stroke-width:0">
            <path
               d="M 4.28125,-5.578125 V -5.875 H 0.6875 v 0.296875 z m 0,0"
               id="id-f7cd5e42-b75a-431c-bd3f-4773a16f0c18"
               style="fill:#960000;fill-opacity:1;stroke-width:0" />
          </g>
          <g
             id="id-ba6d2095-4142-447f-aa1e-ce4b9f521e7b"
             style="fill:#960000;fill-opacity:1;stroke-width:0">
            <path
               d="m 2.96875,-2.25 c 0.15625,0 0.34375,0 0.34375,-0.171875 C 3.3125,-2.5625 3.1875,-2.5625 3.015625,-2.5625 H 1.40625 c 0.234375,-0.84375 0.796875,-1.421875 1.703125,-1.421875 h 0.3125 c 0.171875,0 0.328125,0 0.328125,-0.171875 0,-0.140625 -0.125,-0.140625 -0.296875,-0.140625 H 3.09375 c -1.296875,0 -2.625,1 -2.625,2.515625 0,1.109375 0.75,1.890625 1.796875,1.890625 0.65625,0 1.296875,-0.40625 1.296875,-0.515625 0,-0.015625 0,-0.125 -0.09375,-0.125 -0.015625,0 -0.046875,0 -0.125,0.046875 -0.3125,0.203125 -0.6875,0.375 -1.046875,0.375 -0.578125,0 -1.078125,-0.421875 -1.078125,-1.296875 0,-0.34375 0.078125,-0.734375 0.109375,-0.84375 z m 0,0"
               id="id-04b1aa39-3302-466b-94db-037b8750f8e4"
               style="fill:#960000;fill-opacity:1;stroke-width:0" />
          </g>
        </g>
      </defs>
      <g
         fill-opacity="1"
         id="id-ada9938b-171f-4e2a-8e4b-ce0edd0f9365"
         transform="translate(-149.181,-128.89)"
         style="fill:#960000;fill-opacity:1;stroke-width:0">
        <g
           transform="translate(148.797,134.765)"
           id="g6551"
           style="fill:#960000;fill-opacity:1;stroke-width:0">
          <path
             d="M 4.28125,-5.578125 V -5.875 H 0.6875 v 0.296875 z m 0,0"
             id="id-cdc6c252-07d3-44a6-849b-b42f5ff93c2f"
             style="fill:#960000;fill-opacity:1;stroke-width:0" />
        </g>
      </g>
      <g
         fill-opacity="1"
         id="id-229d54e2-a808-4e7d-9619-900cc18deb2a"
         transform="translate(-149.181,-128.89)"
         style="fill:#960000;fill-opacity:1;stroke-width:0">
        <g
           transform="translate(148.712,134.765)"
           id="g8969"
           style="fill:#960000;fill-opacity:1;stroke-width:0">
          <path
             d="m 2.96875,-2.25 c 0.15625,0 0.34375,0 0.34375,-0.171875 C 3.3125,-2.5625 3.1875,-2.5625 3.015625,-2.5625 H 1.40625 c 0.234375,-0.84375 0.796875,-1.421875 1.703125,-1.421875 h 0.3125 c 0.171875,0 0.328125,0 0.328125,-0.171875 0,-0.140625 -0.125,-0.140625 -0.296875,-0.140625 H 3.09375 c -1.296875,0 -2.625,1 -2.625,2.515625 0,1.109375 0.75,1.890625 1.796875,1.890625 0.65625,0 1.296875,-0.40625 1.296875,-0.515625 0,-0.015625 0,-0.125 -0.09375,-0.125 -0.015625,0 -0.046875,0 -0.125,0.046875 -0.3125,0.203125 -0.6875,0.375 -1.046875,0.375 -0.578125,0 -1.078125,-0.421875 -1.078125,-1.296875 0,-0.34375 0.078125,-0.734375 0.109375,-0.84375 z m 0,0"
             id="id-07bd31de-c331-497a-b737-1237ded6f52f"
             style="fill:#960000;fill-opacity:1;stroke-width:0" />
        </g>
      </g>
    </g>
    <path
       sodipodi:type="spiral"
       style="fill:none;fill-rule:evenodd;stroke:#ff2f00;stroke-width:0.44444;stroke-dasharray:none;stroke-opacity:1;marker-start:url(#marker6)"
       id="path10"
       sodipodi:cx="60.916935"
       sodipodi:cy="15.255729"
       sodipodi:expansion="0.0099999998"
       sodipodi:revolution="0.53945303"
       sodipodi:radius="7.1399589"
       sodipodi:argument="-17.871132"
       sodipodi:t0="0.49988386"
       d="M 54.591377,18.459517 C 52.818111,15.009053 54.241266,10.649608 57.692061,8.8885387 57.9556,8.754045 58.227513,8.6359781 58.505708,8.5352378"
       transform="matrix(-0.93269149,0.86382414,-0.86382414,-0.93269149,83.343555,12.920789)" />
    <g
       transform="matrix(0.677361,0,0,0.677361,23.229257,45.012511)"
       ns1:version="1.10.2"
       ns1:texconverter="pdflatex"
       ns1:pdfconverter="inkscape"
       ns1:text="$\\bar\\phi$"
       ns1:preamble="/home/shawn/.config/inkscape/extensions/textext/default_packages.tex"
       ns1:scale="1.920076115986692"
       ns1:alignment="middle center"
       ns1:stroke-to-path="0"
       ns1:inkscapeversion="1.3.2"
       id="g6713"
       ns1:jacobian_sqrt="0.677361"
       style="fill:#ff2f00;fill-opacity:1">
      <defs
         id="id-e5c841e3-d665-400a-b854-284a1707ee7e">
        <g
           id="id-d1860517-68dd-46f2-9d2c-2e941ddfdad5">
          <g
             id="id-35859610-0013-4d0e-86d0-488839ae752a">
            <path
               d="M 4.28125,-5.578125 V -5.875 H 0.6875 v 0.296875 z m 0,0"
               id="id-c84b4b36-6535-431f-bd35-b0abccf894dc" />
          </g>
          <g
             id="id-1973ed33-3117-49d6-bf34-a1b273ea88d2">
            <path
               d="m 4.359375,-6.671875 c 0,-0.03125 0.03125,-0.140625 0.03125,-0.140625 0,-0.015625 0,-0.109375 -0.125,-0.109375 -0.09375,0 -0.109375,0.03125 -0.15625,0.203125 L 3.53125,-4.421875 c -1.578125,0.0625 -3.046875,1.375 -3.046875,2.734375 0,0.953125 0.703125,1.734375 1.921875,1.8125 C 2.328125,0.421875 2.25,0.75 2.171875,1.0625 c -0.125,0.46875 -0.21875,0.84375 -0.21875,0.875 0,0.09375 0.078125,0.109375 0.125,0.109375 C 2.125,2.046875 2.140625,2.03125 2.171875,2 2.1875,1.984375 2.25,1.75 2.28125,1.609375 L 2.65625,0.125 c 1.609375,-0.0625 3.0625,-1.40625 3.0625,-2.734375 0,-0.796875 -0.53125,-1.703125 -1.921875,-1.8125 z m -1.90625,6.578125 c -0.59375,-0.03125 -1.3125,-0.390625 -1.3125,-1.375 0,-1.203125 0.859375,-2.59375 2.34375,-2.734375 z m 1.28125,-4.109375 c 0.765625,0.046875 1.328125,0.5 1.328125,1.375 0,1.1875 -0.859375,2.609375 -2.34375,2.734375 z m 0,0"
               id="id-2d7b592b-69e7-426b-9f96-b20f28f08cfa" />
          </g>
        </g>
      </defs>
      <g
         fill="#000000"
         fill-opacity="1"
         id="id-a46b2b08-8c69-4092-9b4b-8b4494000ce4"
         transform="translate(-149.196,-126.261)"
         style="fill:#ff2f00;fill-opacity:1">
        <g
           transform="translate(150.02,132.136)"
           id="g7246"
           style="fill:#ff2f00;fill-opacity:1">
          <path
             d="M 4.28125,-5.578125 V -5.875 H 0.6875 v 0.296875 z m 0,0"
             id="id-46eae6dc-aa64-49bc-b506-e22061143821"
             style="fill:#ff2f00;fill-opacity:1" />
        </g>
      </g>
      <g
         fill="#000000"
         fill-opacity="1"
         id="id-e50c76ae-1a9c-41d0-a1d4-421370f43997"
         transform="translate(-149.196,-126.261)"
         style="fill:#ff2f00;fill-opacity:1">
        <g
           transform="translate(148.712,134.765)"
           id="g6251"
           style="fill:#ff2f00;fill-opacity:1">
          <path
             d="m 4.359375,-6.671875 c 0,-0.03125 0.03125,-0.140625 0.03125,-0.140625 0,-0.015625 0,-0.109375 -0.125,-0.109375 -0.09375,0 -0.109375,0.03125 -0.15625,0.203125 L 3.53125,-4.421875 c -1.578125,0.0625 -3.046875,1.375 -3.046875,2.734375 0,0.953125 0.703125,1.734375 1.921875,1.8125 C 2.328125,0.421875 2.25,0.75 2.171875,1.0625 c -0.125,0.46875 -0.21875,0.84375 -0.21875,0.875 0,0.09375 0.078125,0.109375 0.125,0.109375 C 2.125,2.046875 2.140625,2.03125 2.171875,2 2.1875,1.984375 2.25,1.75 2.28125,1.609375 L 2.65625,0.125 c 1.609375,-0.0625 3.0625,-1.40625 3.0625,-2.734375 0,-0.796875 -0.53125,-1.703125 -1.921875,-1.8125 z m -1.90625,6.578125 c -0.59375,-0.03125 -1.3125,-0.390625 -1.3125,-1.375 0,-1.203125 0.859375,-2.59375 2.34375,-2.734375 z m 1.28125,-4.109375 c 0.765625,0.046875 1.328125,0.5 1.328125,1.375 0,1.1875 -0.859375,2.609375 -2.34375,2.734375 z m 0,0"
             id="id-29703c83-6014-4641-9762-70b6ccb22709"
             style="fill:#ff2f00;fill-opacity:1" />
        </g>
      </g>
    </g>
  </g>
</svg>
